<?xml version="1.0" encoding="UTF-8" standalone="no"?> <svg id="Reference" xmlns="http://www.w3.org/2000/svg" viewBox="0 0 48 48"><defs><style>.cls-1{fill:#02276b;}.cls-2{fill:#1c3a89;}.cls-3{fill:#3160ad;}.cls-4{fill:#dee7f6;}.cls-5{fill:#fff;}.cls-6{fill:#b6cee6;}.cls-7{fill:#51ce93;}.cls-8{fill:#d65363;}.cls-9{fill:#09105a;}</style></defs><rect class="cls-1" x="20" y="35" width="8" height="4"/><rect class="cls-2" x="4" y="5" width="40" height="30" rx="4"/><path class="cls-3" d="M40,5H37a4,4,0,0,1,4,4V31a4,4,0,0,1-4,4h3a4,4,0,0,0,4-4V9A4,4,0,0,0,40,5Z"/><path class="cls-4" d="M8,5H40a4,4,0,0,1,4,4V29a0,0,0,0,1,0,0H4a0,0,0,0,1,0,0V9A4,4,0,0,1,8,5Z"/><path class="cls-5" d="M40,5H37a4,4,0,0,1,4,4V29h3V9A4,4,0,0,0,40,5Z"/><path class="cls-6" d="M12.5,26.5A3.494,3.494,0,0,0,15.837,24H20a5.006,5.006,0,0,0,5-5V17a3,3,0,0,1,3-3h5v1a1.492,1.492,0,0,0,.808,1.318,1.591,1.591,0,0,0,.739.183,1.574,1.574,0,0,0,.892-.278l2.91-2a1.476,1.476,0,0,0,0-2.448l-2.908-2a1.579,1.579,0,0,0-1.632-.095A1.492,1.492,0,0,0,33,11v1H28a5.006,5.006,0,0,0-5,5v2a3,3,0,0,1-3,3H15.837A3.493,3.493,0,1,0,12.5,26.5Z"/><path class="cls-6" d="M14.293,15.707a1,1,0,0,0,1.414,0l.793-.793.793.793a1,1,0,0,0,1.414-1.414l-.793-.793.793-.793a1,1,0,0,0-1.414-1.414l-.793.793-.793-.793a1,1,0,0,0-1.414,1.414l.793.793-.793.793A1,1,0,0,0,14.293,15.707Z"/><path class="cls-6" d="M33.707,21.293a1,1,0,0,0-1.414,0l-.793.793-.793-.793a1,1,0,0,0-1.414,1.414l.793.793-.793.793a1,1,0,1,0,1.414,1.414l.793-.793.793.793a1,1,0,0,0,1.414-1.414l-.793-.793.793-.793A1,1,0,0,0,33.707,21.293Z"/><path class="cls-2" d="M10.667,39H37.333A2.667,2.667,0,0,1,40,41.667v0A1.333,1.333,0,0,1,38.667,43H9.333A1.333,1.333,0,0,1,8,41.667v0A2.667,2.667,0,0,1,10.667,39Z"/><path class="cls-3" d="M37.333,39h-3A2.667,2.667,0,0,1,37,41.667,1.333,1.333,0,0,1,35.667,43h3A1.333,1.333,0,0,0,40,41.667,2.667,2.667,0,0,0,37.333,39Z"/><circle class="cls-7" cx="12.5" cy="22" r="2.5"/><path class="cls-8" d="M34.873,14.4l2.909-2a.476.476,0,0,0,0-.8l-2.909-2A.55.55,0,0,0,34,10v4A.55.55,0,0,0,34.873,14.4Z"/><path class="cls-9" d="M40,4H8A5.006,5.006,0,0,0,3,9V31a5.006,5.006,0,0,0,5,5H19v2H10.667A3.671,3.671,0,0,0,7,41.667,2.336,2.336,0,0,0,9.333,44H38.667A2.336,2.336,0,0,0,41,41.667,3.671,3.671,0,0,0,37.333,38H29V36H40a5.006,5.006,0,0,0,5-5V9A5.006,5.006,0,0,0,40,4ZM8,6H40a3,3,0,0,1,3,3V28H5V9A3,3,0,0,1,8,6ZM39,41.667a.333.333,0,0,1-.333.333H9.333A.333.333,0,0,1,9,41.667,1.669,1.669,0,0,1,10.667,40H37.333A1.669,1.669,0,0,1,39,41.667ZM27,38H21V36h6Zm13-4H8a3,3,0,0,1-3-3V30H43v1A3,3,0,0,1,40,34Z"/><path class="cls-9" d="M12.5,25.5A3.494,3.494,0,0,0,15.837,23H20a5.006,5.006,0,0,0,5-5V16a3,3,0,0,1,3-3h5v1a1.492,1.492,0,0,0,.808,1.318,1.591,1.591,0,0,0,.739.183,1.574,1.574,0,0,0,.892-.278l2.91-2a1.476,1.476,0,0,0,0-2.448l-2.908-2a1.579,1.579,0,0,0-1.632-.095A1.492,1.492,0,0,0,33,10v1H28a5.006,5.006,0,0,0-5,5v2a3,3,0,0,1-3,3H15.837A3.493,3.493,0,1,0,12.5,25.5ZM35,10.9,36.6,12,35,13.1ZM12.5,20.5A1.5,1.5,0,1,1,11,22,1.5,1.5,0,0,1,12.5,20.5Z"/><path class="cls-9" d="M14.293,14.707a1,1,0,0,0,1.414,0l.793-.793.793.793a1,1,0,0,0,1.414-1.414l-.793-.793.793-.793a1,1,0,0,0-1.414-1.414l-.793.793-.793-.793a1,1,0,0,0-1.414,1.414l.793.793-.793.793A1,1,0,0,0,14.293,14.707Z"/><path class="cls-9" d="M33.707,20.293a1,1,0,0,0-1.414,0l-.793.793-.793-.793a1,1,0,0,0-1.414,1.414l.793.793-.793.793a1,1,0,1,0,1.414,1.414l.793-.793.793.793a1,1,0,0,0,1.414-1.414l-.793-.793.793-.793A1,1,0,0,0,33.707,20.293Z"/></svg>